# xmcd
#
# Track frame offsets:
#	150
#	12548
#	32842
#	48020
#	61159
#	75779
#	91770
#	106843
#	119637
#	136438
#	155654
#
# Disc length: 2270 seconds
#
# Revision: 1
# Processed by: cddbd v1.5.2PL0 Copyright (c) Steve Scherf et al.
# Submitted via: audiograbber 1.83.01
#
DISCID=8008dc0b
DTITLE=Gene Watson - A Taste Of The Truth
DYEAR=2009
DGENRE=Country
TTITLE0=Speaking Of The Angel
TTITLE1=Taste Of The Truth
TTITLE2=I Think We've Got A Pulse
TTITLE3=Till A Better Memory
TTITLE4=It's My Lie
TTITLE5=Staying Together
TTITLE6=Three Minutes At A Time
TTITLE7=Wrong Way To Find Mr. Right
TTITLE8=Use Me Again
TTITLE9=Still They Call Me Love
TTITLE10=I Know An Ending
EXTD=
EXTT0=
EXTT1=
EXTT2=
EXTT3=
EXTT4=
EXTT5=
EXTT6=
EXTT7=
EXTT8=
EXTT9=
EXTT10=
PLAYORDER=
